<svg width="210" height="32" viewBox="0 0 210 32" fill="none" xmlns="http://www.w3.org/2000/svg">
<path d="M10.9648 14.5098C20.0644 14.5098 34.216 12.5012 44.9285 10.4469C46.039 10.234 43.4677 14.4489 43.9395 16.5032C44.4112 18.5574 47.4241 19.5617 50.9848 19.0748C58.8895 17.9938 65.7146 12.5012 71.2839 10.9643C81.9356 17.5531 95.1133 16.5488 104.228 14.0228C108.321 12.5012 111.334 10.4926 117.482 8.4231" stroke="#2B6F4B" stroke-width="2" stroke-linecap="round"/>
<path d="M116.396 9.37976C115.392 10.3841 114.388 11.3884 114.875 13.4122C115.362 15.436 117.37 18.4489 119.911 19.4989C122.453 20.5488 125.466 19.5445 128.57 18.5098" stroke="#2B6F4B" stroke-width="2" stroke-linecap="round"/>
<path d="M128.748 17.3798C141.518 17.3798 161.281 15.6638 173.148 16.5088C185.015 13.9218 193.904 10.4638 199.815 7.43476C202.792 6.12176 205.726 5.26376 208.748 4.37976" stroke="#2B6F4B" stroke-width="2" stroke-linecap="round"/>
<path d="M1.81839 5.46276C3.18792 5.0158 5.06907 4.92136 6.54102 4.98327C6.99787 5.0024 6.84515 5.45821 7.16282 5.49045C7.7833 5.55314 8.29743 5.25596 8.90757 5.35305C9.10997 5.3873 8.98269 6.08963 9.19222 6.11042C10.3789 6.21305 11.4204 5.86676 12.5675 5.82248C18.2735 5.59678 23.8126 4.97287 29.5229 4.42596C31.4226 4.24242 33.7441 4.51776 35.6765 3.97259C35.8975 3.90897 35.6797 3.3445 35.7158 3.29026C36.2822 2.45808 36.2267 3.66831 36.6835 3.76323C38.5317 4.132 40.4329 3.92424 42.1279 3.46742C42.8305 3.27398 41.9595 2.20884 42.764 2.76469C42.8195 2.80212 42.722 3.44671 42.9254 3.48703C43.3825 3.57763 44.2078 3.35618 44.5713 3.35897C45.2572 3.36933 45.3663 3.34893 45.9919 3.27589C46.8225 3.18479 47.936 3.35845 48.8265 3.10623C49.0178 3.05037 48.6813 2.44498 48.9791 2.29844C49.2685 2.15297 50.1215 2.1046 50.426 2.22077C50.7286 2.3371 50.6669 2.85253 50.7309 2.96135C51.2608 3.88082 52.0538 2.42712 52.1701 2.38021C54.4114 1.54767 56.3949 2.10698 58.5589 1.88888C60.1513 1.72681 61.9109 1.31025 63.445 1.22017C65.3293 1.11126 66.8821 1.34964 68.7091 1.18989C68.8945 1.17439 68.6367 0.432381 68.8631 0.412049C71.3852 0.197102 73.885 0.187479 76.5215 0.813121C76.7933 0.878508 76.4099 1.52248 76.6735 1.62753C77.3735 1.91385 78.2729 2.37773 79.2042 2.65622C79.4417 2.71388 79.6886 2.78025 80.0357 2.99978C80.456 3.2501 80.9027 3.84685 80.9812 4.43415C81.063 5.05453 80.951 5.3093 80.8755 5.56834C80.7762 5.84119 80.7298 5.92392 80.657 6.06882C80.3968 6.55201 80.2612 6.78687 80.1464 7.10239C79.9603 7.669 79.9588 8.29612 80.2641 9.07612C79.2796 9.77095 78.2084 10.4296 77.1242 10.5189C76.4292 10.5723 76.452 9.65368 76.0604 10.3309C75.9717 10.4826 76.5187 10.8633 76.3566 11.0529C75.6738 11.8505 74.6651 12.3421 74.0872 13.1944C73.9712 13.3685 74.3589 13.7852 74.377 13.8998C74.5089 14.8379 73.08 14.226 72.8866 14.2558C72.1764 14.3556 71.6909 14.6169 71.3246 14.9213C71.1478 15.0678 70.9912 15.234 70.8653 15.386C70.7518 15.5208 70.6416 15.691 70.6672 15.6519C70.6626 15.6591 70.6579 15.6663 70.6532 15.6736C70.4997 15.9115 71.3195 16.0332 71.2013 16.2684C70.8974 16.8685 70.6351 17.3876 70.3961 17.8109C70.1387 18.2672 69.8784 18.741 69.6567 19.0183C69.5546 19.1484 68.9411 18.8991 68.8587 18.9639C68.4953 19.3718 69.7331 19.4883 69.4799 19.6213C69.4298 19.6561 68.8785 19.7185 68.819 19.7332C68.3547 19.8692 68.4765 19.9613 68.7049 19.9462C68.9346 19.938 69.2678 19.8378 69.2841 19.8392C69.508 19.8419 69.2917 19.9847 69.2419 20.3318C69.182 20.6632 69.2896 21.1207 69.6977 21.2114C69.7935 21.23 69.923 20.5133 70.1573 20.5938C71.7925 21.1396 74.4898 21.5292 77.0508 22.0444C77.4681 22.1228 77.1848 22.6557 77.2105 22.7203C77.636 23.7275 77.8571 22.3575 77.98 22.3018C78.9462 21.8987 80.0825 22.9635 80.6331 21.2911C85.0848 21.48 89.2889 19.8612 93.9363 20.4429C93.9955 20.4485 94.0229 21.126 94.1406 21.1343C95.5634 21.2388 95.1118 20.2648 95.7461 18.8364C95.8985 18.479 96.8783 19.847 96.9624 19.9444C97.2645 20.3058 97.243 21.329 97.3323 21.3925C98.0687 21.8837 97.2892 18.6782 98.1014 18.5036C98.1281 18.5035 98.1481 19.12 98.2293 19.1643C98.4822 19.3038 98.6431 19.0224 98.8968 19.1811C99.4775 19.5496 99.9986 21.0763 100.533 20.0024C100.598 19.8638 100.052 18.0695 100.791 17.9945C101.085 17.9668 102.354 17.6443 102.742 17.6781C103.129 17.7127 103.019 18.3572 103.05 18.3767C104.203 18.9267 103.91 19.334 104.671 20.3676C105.433 21.3957 104.652 18.6988 104.778 18.3472C104.902 17.9972 105.761 18.4683 105.989 18.6484C106.216 18.8289 106.089 19.2536 106.274 19.3421C107.502 19.9156 106.398 17.8803 106.631 17.3659C107.176 16.1487 108.293 18.0153 109.078 18.03C109.289 18.0339 109.013 17.6147 109.179 17.5277C109.835 17.1895 110.41 17.7139 111.056 16.9361C111.162 16.8092 111.491 15.4351 112.132 16.2175C112.224 16.3306 112.186 16.8754 112.512 16.9115C112.998 16.9663 113.826 16.8688 114.259 16.5766C114.578 16.3606 113.959 15.6399 114.468 15.7808C114.695 15.8438 114.457 16.4226 114.873 16.5006C115.287 16.5792 116.221 16.3098 116.573 16.1981C116.925 16.0863 116.564 15.5122 116.581 15.4624C116.691 15.1746 117.292 14.6908 117.353 14.6753C120.378 13.7831 123.473 14.0612 126.332 12.882C126.555 12.7908 126.217 12.1765 126.249 12.1558C126.958 11.6587 126.83 13.5814 127.545 14.0115C127.089 12.6999 127.48 12.8505 128.008 12.543C128.261 12.3941 127.966 11.9199 127.976 11.86C128.157 10.9613 128.724 11.8948 128.855 12.0814C129.338 12.7679 129.37 11.7853 129.695 12.2434C130.019 12.6976 129.819 13.5651 130.352 13.4027C130.366 12.8828 129.613 11.7491 129.961 11.4313C131.233 10.2428 134.46 10.371 135.67 10.1301C136.96 9.86613 137.332 9.66228 138.098 9.62651C139.473 9.56442 138.729 8.77892 139.396 8.12598C140.107 7.4606 140.362 9.85146 140.625 10.3051C140.884 10.7595 140.864 10.2197 141.087 10.4462C141.309 10.6727 141.095 11.0954 141.462 11.0979C141.831 11.0997 142.484 9.96729 142.449 9.42322C142.379 8.26984 141.65 7.2497 142.624 7.39937C142.68 7.40879 142.695 8.05275 142.9 8.05854C144.633 8.05403 146.123 7.65294 147.867 7.59514C148.099 7.59051 148.097 8.3113 148.234 8.31626C149.64 8.37622 148.857 7.38538 149.187 5.94442C149.507 7.64755 150.144 8.56334 151.175 8.28715C151.77 8.12885 151.465 7.43148 151.698 6.81654C151.768 6.63107 152.301 7.02241 152.277 6.66165C152.225 5.47587 151.438 4.34257 152.672 4.54765C152.725 4.55898 152.739 5.21153 152.91 5.20592C154.041 5.17035 153.64 4.0169 154.881 3.56465C155.082 3.48994 155.322 3.45225 155.575 3.44157C155.701 3.43622 155.831 3.4376 155.961 3.44433C156.096 3.44985 156.306 3.44536 156.472 3.45452C156.82 3.46966 157.144 3.50662 157.433 3.55243C157.829 3.59122 158.285 3.59612 158.863 3.76392C159.047 3.82554 159.223 3.89375 159.394 3.97163C159.209 4.42119 159.189 4.76844 159.236 5.03104C159.272 5.29116 159.4 5.4632 159.553 5.69109C159.904 6.20115 159.984 6.9193 160.392 7.53842C159.736 8.41473 159.214 8.8844 158.566 9.19353C158.344 9.29168 158.113 8.75639 158.052 8.72776C157.134 8.24275 157.7 9.44185 157.611 9.57208C156.636 10.9053 155.043 10.7527 154.376 12.3415C154.351 12.3992 155.02 13.572 154.166 12.9548C154.109 12.9114 154.167 12.1395 153.58 12.4681C153.359 12.5922 153 12.6864 152.648 12.8068C152.467 12.8701 152.285 12.9431 152.146 13.0191C152.073 13.0588 152.008 13.1066 152.008 13.1027C152.011 13.0977 152.013 13.099 152.044 13.0528C152.072 12.9935 152.126 12.9751 152.167 12.6848C152.19 12.5068 152.115 12.2076 151.949 12.0318C151.762 11.8385 151.693 11.8356 151.619 11.7984C151.479 11.7443 151.414 11.746 151.383 11.7406L150.984 11.8206C151.168 11.7093 151.365 11.5417 151.484 11.3335C151.626 11.1042 151.692 9.87089 152.455 10.4601C152.559 10.5398 152.66 10.9189 152.831 11.077C153.389 11.5742 152.939 10.2812 153.739 11.186C154.526 12.0966 155.529 12.5855 156.044 11.4658C156.06 11.4328 155.815 10.3559 156.085 10.2494C156.527 10.0754 157.232 9.99733 157.676 9.78554C157.889 9.6837 157.472 9.13745 157.504 9.10921C158.796 8.10278 160.08 8.17612 161.741 7.72525C162.045 7.64389 162.505 6.44409 163.349 6.86809C164.271 7.33391 164.947 10.6219 166.019 9.31599C166.445 8.79635 165.576 4.6327 167.417 6.22432C169.209 4.92897 171.433 5.2733 173.208 3.88899C173.288 3.82717 173.225 2.62325 173.448 2.56987C173.785 2.4914 174.124 2.95811 174.363 2.92406C174.98 2.84356 175.506 2.55982 176.039 2.31676C176.399 2.15575 176.744 2.0166 177.136 1.9593C177.507 1.90586 177.491 2.48413 177.93 2.42755C178.357 2.37585 178.527 1.58955 179.177 1.85334C179.673 2.0563 180.286 3.5063 180.842 3.63506C180.731 2.14523 181.13 2.13292 181.842 1.7123C181.98 1.63116 181.812 1.11584 181.877 1.05063C182.149 0.773791 182.415 1.20186 182.678 0.911233C182.743 0.841486 182.75 0.330859 182.805 0.245253C183.295 -0.505234 184.022 0.686341 184.122 0.896751C184.546 1.69032 184.826 1.05303 185.162 1.39388C185.487 1.73604 184.905 2.03915 185.295 2.27221C186.092 2.75296 187.164 2.88123 188.006 3.1124C188.342 3.20111 188.275 2.48297 188.327 2.48026C189.085 2.48922 189.592 3.38615 190.36 2.19443C189.867 5.70769 190.881 1.98884 191.69 2.96721C191.753 3.04587 191.369 4.66424 190.998 4.80652C190.631 4.94976 190.324 4.31577 189.803 4.56059C189.679 4.61654 188.702 5.95672 188.609 6.02973C187.847 6.58412 188.401 4.16783 188.4 4.0261C188.404 2.50578 187.309 3.9687 187.121 4.04779C186.211 4.39038 185.607 3.93387 184.901 4.2261C184.443 4.41719 184.242 6.03218 183.952 5.95635C183.015 5.72053 182.563 3.45041 181.637 5.45695C181.446 5.88969 181.778 7.63975 180.956 6.30738C180.913 6.2214 180.2 5.01083 179.976 5.86029C179.95 5.96692 180.023 6.47931 179.977 6.52983C179.666 6.8596 179.37 6.49029 179.016 6.75722C178.664 7.0241 178.266 7.40997 177.783 7.34568C177.636 7.3264 177.415 7.1009 177.2 6.85954C176.995 6.6217 176.798 6.36833 176.7 6.27325C176.131 5.72049 176.025 6.91097 175.55 6.19209C175.064 5.47267 175.206 4.11787 174.383 3.80631C174.748 5.10101 175.095 6.43856 175.453 7.74332C174.068 8.11814 172.55 8.18921 171.157 8.77573C170.985 8.84985 171.418 9.45908 171.241 9.55581C170.501 9.95889 169.622 9.74972 168.88 10.2695C168.306 10.6751 167.906 11.6683 167.324 12.1223C166.323 10.8725 165.541 11.7737 164.771 11.9564C164.501 12.021 164.353 11.637 164.122 11.5921C163.246 11.4346 164.111 12.5406 164.013 12.8174C163.597 14.0007 162.279 11.2171 161.368 11.7102C161.321 11.7344 161.388 13.5054 161.349 13.6353C161.099 14.4807 161.028 13.1538 160.644 13.1953C159.946 13.2704 159.363 13.1065 158.849 13.8728C158.704 14.0966 158.629 15.2581 157.9 14.7245C157.803 14.6554 157.604 14.1497 157.547 14.1411C156.547 14.0218 157.241 15.579 157.045 16.3063C156.839 17.0388 155.649 16.2944 155.371 16.049C154.628 15.4265 155.494 15.579 155.477 15.4922C155.277 14.4553 154.858 14.8444 154.426 14.9488C153.674 13.4556 153.169 13.7981 153.988 15.059C154.08 15.1955 154.318 14.9144 154.426 14.9488C154.779 16.591 154.248 17.0683 152.931 15.9769C152.856 15.9126 152.79 15.8422 152.73 15.7696C152.429 15.8806 151.612 16.0843 151.293 16.0576C150.808 15.8801 150.329 15.6596 149.748 15.1527C149.364 14.8791 148.58 13.9796 148.548 12.9903C148.531 11.8897 148.81 11.7275 148.985 11.4082C149.179 11.1361 149.393 10.9508 149.489 10.8919C149.608 10.807 149.74 10.7128 149.838 10.6439C149.928 10.5823 150.021 10.5088 150.122 10.419C150.202 10.3454 150.291 10.2522 150.39 10.1385C150.747 9.71235 149.916 8.89203 150.132 8.36385C150.59 7.19165 152.182 7.45066 152.855 6.7971C153.098 6.56161 152.479 6.21716 152.631 6.03903C153.027 5.56742 153.719 5.66522 154.023 5.14602C154.049 5.0988 153.565 4.6358 153.694 4.53074C154.164 4.14104 154.653 3.85152 154.886 3.75499C154.94 3.73715 154.974 3.73304 154.956 3.79158C154.939 3.8566 154.859 3.96446 154.681 4.36198C154.578 4.60867 154.459 4.87809 154.363 5.46959C154.275 6.04821 154.279 6.9339 154.672 7.85505C155.063 8.77307 155.675 9.35998 156.124 9.68103C156.516 9.9645 156.894 10.12 157.057 10.1779C157.213 10.2347 157.341 10.2723 157.43 10.2988C158.298 10.4764 158.411 10.4099 158.38 10.4636C158.326 10.5033 158.231 10.5557 158.077 10.6183C157.931 10.6793 157.711 10.7544 157.529 10.8121C157.378 10.8625 157.221 10.9031 157.073 10.9201C156.785 10.9541 156.434 10.9524 156.035 10.9448C155.678 10.9267 155.35 10.8824 154.979 10.8621C154.247 10.8188 153.457 10.8443 152.994 11.0917C152.335 11.4271 152.659 12.0226 152.471 12.5407C152.083 13.5516 150.62 12.3438 150.424 12.1485C150.419 12.1414 150.971 11.8238 150.562 11.5876C150.185 10.9612 150.429 12.1437 150.424 12.1485C150.299 12.0213 149.017 12.2305 148.788 12.4278C148.668 12.5339 148.918 13.1122 148.852 13.1562C147.387 14.1579 145.654 14.8264 143.964 15.0137C143.931 15.0102 143.78 14.3262 143.705 14.3262C142.65 14.3096 142.239 15.3196 141.555 16.0473C140.912 16.7627 140.226 16.7853 139.412 15.7725C138.846 16.0943 137.796 15.8467 137.199 15.6846C136.616 15.5184 136.923 16.8455 136.887 16.884C135.762 18.1055 134.723 17.5947 133.239 17.8944C132.55 18.0295 131.251 18.6058 130.541 18.9617C129.984 19.2444 129.528 19.042 129.047 19.3897C128.982 19.4363 129.219 19.9986 129.204 20.0273C128.802 20.8936 128.688 19.3873 128.492 19.1676C127.783 18.3682 127.368 17.9529 126.717 18.605C126.567 18.7547 126.619 20.9539 126.323 21.1656C125.938 21.4369 125.895 20.6557 125.496 20.9585C125.462 20.9837 125.596 21.4358 125.313 21.4926C124.018 21.7578 122.562 21.8728 121.239 22.28C121.057 22.3338 121.487 22.9924 121.228 23.0821C120.014 23.5023 118.662 23.8346 117.366 23.814C117.047 23.8065 117.1 23.2512 116.996 23.1178C116.362 22.3118 116.149 23.7804 116.062 23.8299C114.014 25.042 112.029 24.2717 109.899 25.4043C109.785 25.4683 109.18 27.1253 108.459 26.0065C108.41 25.9325 107.69 24.784 107.527 25.7272C107.516 25.7862 107.932 26.3673 107.461 26.4108C106.993 26.4536 106.353 27.06 105.553 26.5002C105.299 26.3242 104.538 25.1851 104.173 26.3178C104.152 26.3962 103.744 28.8607 103.064 27.3784C102.954 27.1341 102.638 25.4759 102.123 26.4775C102.025 26.6713 102.352 26.9843 102.048 27.2927C101.566 27.7708 100.733 27.4907 100.209 28.3718C100.119 28.5274 99.8485 29.7565 99.2638 28.9909C99.1724 28.8709 99.1766 28.2943 98.9506 28.2773C97.8875 28.1912 96.8738 28.7819 95.7495 28.6041C95.3532 28.5418 95.3681 27.611 94.9392 27.4452C94.5096 27.2798 93.7032 27.1929 93.3844 27.6746C93.0626 28.157 93.7647 29.5046 93.1789 29.7293C90.5687 30.7142 87.7494 30.3001 85.0613 30.5034C84.66 30.5331 85.0558 31.0096 84.4372 31.0919C82.1913 31.4099 78.282 32.1803 76.0713 31.0356C74.3966 30.1271 76.5072 29.4893 75.2592 29.1057C74.6704 28.92 73.9857 30.5717 73.7695 30.6107C72.0426 31.0251 71.2406 30.189 69.4658 30.0321C69.1168 29.9981 69.2918 30.7438 68.9881 30.7035C68.4654 30.6346 67.9538 30.4377 67.4575 30.2091C66.8763 29.9519 66.2881 29.644 65.703 29.3864C65.1766 29.1493 65.0227 29.6597 64.5488 29.3408C63.4395 28.5929 62.1897 27.305 61.6028 25.6556C61.5565 25.5142 62.6576 25.9282 61.9621 24.9165C61.4035 24.0591 61.0197 22.9244 60.8153 21.7789C60.6195 20.6696 60.5687 19.7285 60.3823 18.73C60.3276 18.4383 60.0091 18.256 59.8259 17.9889C59.7347 17.8566 59.6786 17.6996 59.7104 17.5135C59.7366 17.3622 59.849 17.1829 60.1015 16.9813C60.3222 16.8056 61.6288 17.3958 60.7176 16.026C60.5101 15.8739 59.706 13.2094 60.9782 13.1217C61.3218 13.0567 62.583 13.1504 62.6153 12.7031C62.6172 12.6377 61.9402 12.5408 62.0559 12.1961C62.2353 11.6828 62.4855 11.1814 62.7658 10.6787C63.7657 9.11157 64.3077 8.69099 64.8141 8.02588C65.0369 7.7463 64.1955 7.61629 64.551 7.21053C65.5109 6.12179 66.7544 5.37449 67.7444 4.8783C68.1104 4.6973 68.2228 5.30286 68.2824 5.33263C69.2394 5.82745 68.6601 4.62004 68.7363 4.46683C69.2112 3.53671 70.1367 3.61972 70.6926 3.00083C70.8449 2.83289 70.3435 2.42559 70.3456 2.35437C70.3881 1.64109 70.7878 2.74692 71.0937 2.67258C71.9503 2.46879 72.6152 1.89926 73.0873 1.41018C73.2542 1.234 72.5893 0.840674 72.7341 0.696637C72.9547 0.471528 73.1707 0.242277 73.1237 0.282756C73.1052 0.301388 73.066 0.341358 72.9762 0.450821C72.8651 0.596082 72.7584 0.697625 72.4307 1.25659C72.279 1.5396 72.1041 1.81879 71.8448 2.61594C71.728 2.99337 71.6167 3.45448 71.5581 4.02165C71.4876 4.67196 71.4962 5.62789 71.7527 6.60758C72.2316 8.66727 73.8846 10.4459 75.1617 11.132C76.1214 11.6841 76.8678 11.8667 77.4024 11.9705C77.305 11.8877 76.7485 11.709 76.2197 11.5013C75.9874 11.4118 76.1646 10.8614 76.1211 10.7312C75.7959 9.81881 75.2097 11.0229 75.0768 11.137C74.5161 11.6571 74.2575 11.1623 73.7436 11.2569C71.1446 11.7286 67.712 11.6093 65.0487 11.6174C61.5547 11.6345 58.831 11.3746 55.5134 11.8775C55.3067 11.9086 55.5981 12.6248 55.4209 12.6611C53.0612 13.1039 50.7648 13.0861 48.4018 13.6004C48.2057 13.6416 48.5797 14.3052 48.2677 14.3949C47.6609 14.5797 46.8572 14.6442 46.1759 14.5058C45.8437 14.4396 46.1927 13.7839 45.8593 13.7296C45.061 13.605 44.3097 13.6538 43.5582 13.8686C43.2414 13.9612 43.8254 14.6106 43.4059 14.6753C40.5535 15.1313 37.7916 15.6458 34.7522 15.1452C34.5477 15.1102 34.1643 13.6846 33.7853 14.0244C33.8128 14.4316 33.884 14.9048 33.9334 15.3371C29.8114 16.1794 25.5831 16.3162 21.4263 16.8985C21.2485 16.9236 21.6772 17.6419 21.3335 17.6945C19.3294 18.0025 17.4986 18.5169 15.3335 18.0899C15.124 18.0478 15.0047 16.6825 14.4546 16.9825C14.3585 17.0365 13.504 17.3622 13.3214 17.6932C13.2975 17.7426 13.5641 18.3449 13.2803 18.4108C11.6028 18.787 9.88079 18.9279 8.14071 18.8272C7.85997 18.8097 8.03422 18.0913 7.83312 18.0731C6.3798 17.9536 5.04954 18.7047 3.63851 18.3217C2.69745 18.0624 2.82007 16.8499 2.15811 15.7913C2.06472 15.6419 1.51537 15.7107 1.37212 15.0531C1.01109 13.3995 0.960391 11.5293 0.544357 9.77218C0.455618 9.39353 -0.208947 9.93302 0.0666644 8.93317C0.0866177 8.86598 0.565955 8.46704 0.642225 8.13092C0.695789 7.89838 0.4153 7.25285 0.553098 6.94322C0.690887 6.63386 0.99216 7.16357 1.24215 6.7847C1.49096 6.40191 1.2254 5.65815 1.81839 5.46276ZM134.548 14.9533C133.898 14.4608 134.49 16.7803 134.841 16.0835C134.857 16.0471 134.581 14.9771 134.548 14.9533ZM171.946 6.50112C171.009 5.71503 171.14 7.32194 171.829 7.93764C172.507 8.55676 172.227 6.74109 171.946 6.50112ZM177.773 3.97041C176.893 3.31237 177.577 6.63783 178.11 5.81574C178.141 5.76951 177.822 4.00926 177.773 3.97041ZM4.2467 15.0981C4.23492 15.0678 3.845 15.1033 3.84098 15.1359C3.76473 15.92 4.54408 15.8487 4.2467 15.0981ZM183.834 2.62729C183.638 2.15191 182.973 2.65999 183.229 3.23979C183.422 3.70299 184.062 3.21417 183.834 2.62729ZM109.38 19.1584C109.363 19.1257 109.081 19.1628 109.135 19.357C109.31 19.9824 109.649 19.7094 109.38 19.1584ZM194.409 5.12632C192.864 4.53094 192.749 1.55972 194.35 2.37918C194.64 2.52716 193.428 3.03341 193.747 3.39446C194.333 4.05346 195.308 2.50863 195.775 3.62518C195.86 3.83014 194.502 5.16906 194.405 5.12923C194.407 5.12826 194.408 5.12729 194.409 5.12632ZM133.482 12.2695C133.464 12.2418 133.078 12.3217 133.078 12.3545C133.083 13.1434 133.861 12.9827 133.482 12.2695ZM93.0465 21.2795C93.0121 21.2179 92.1297 21.3181 92.1137 21.3837C91.8806 22.6906 93.6772 22.4897 93.0465 21.2795ZM159.404 4.03134C159.719 3.95875 160.065 3.93464 160.544 4.23533C161.008 4.50829 161.472 5.22411 161.513 5.88917C161.557 7.212 160.92 7.52713 160.395 7.53591C160.58 7.24235 160.954 6.80242 160.853 5.80794C160.785 5.30064 160.491 4.82232 160.186 4.54377C159.88 4.262 159.642 4.1427 159.404 4.03134Z" fill="#00900E"/>
</svg>
