<svg width="140" height="52" viewBox="0 0 140 52" fill="none" xmlns="http://www.w3.org/2000/svg">
<path d="M118.769 0.00731421C119.253 0.196 119.532 0.790143 119.65 1.34145C119.688 1.51331 119.335 1.75993 119.347 1.89186C119.371 2.1494 119.65 2.13394 119.65 2.41245C119.649 2.50621 119.116 2.92331 119.126 3.01076C119.182 3.48678 119.554 3.61726 119.722 3.98771C120.549 5.81354 121.672 7.29964 122.794 8.86776C123.165 9.38503 123.267 10.3557 123.911 10.6306C123.987 10.6622 124.376 10.2164 124.42 10.1925C125.109 9.83149 124.208 10.613 124.199 10.829C124.166 11.6858 124.58 12.1859 125.139 12.4309C125.377 12.5333 126.046 11.5424 125.745 12.1748C125.725 12.2178 125.235 12.6122 125.233 12.7058C125.23 12.9173 125.507 13.0408 125.553 13.1589C125.638 13.3877 125.668 13.4097 125.81 13.5656C126 13.7825 126.015 14.2442 126.333 14.3681C126.403 14.3932 126.802 13.8832 126.954 13.8828C127.106 13.8827 127.261 14.1209 127.217 14.2935C127.174 14.4662 126.784 14.7885 126.712 14.8809C126.105 15.6568 127.303 14.9503 127.355 14.9569C128.291 15.1054 128.189 16.1104 128.681 16.6209C129.059 17.0113 129.639 17.2512 129.97 17.6513C130.357 18.1238 130.466 18.7463 130.915 19.1372C130.962 19.1797 131.462 18.6093 131.521 18.6603C132.147 19.2004 132.64 19.8523 132.82 20.8014C132.838 20.8969 132.278 21.267 132.266 21.3891C132.202 22.124 131.763 23.5863 134.1 21.8705C134.247 22.2015 134.439 22.5892 134.204 23.2004C134.057 23.5977 133.39 23.9338 133.781 23.9102C133.868 23.9055 134.294 23.4326 134.39 23.4574C134.793 23.5629 134.883 23.976 135.357 24.022C135.454 24.0298 135.868 23.6429 135.958 23.5908C136.691 23.1742 135.841 24.2778 135.804 24.3873C135.551 25.2261 135.977 25.2751 136.247 25.6224C136.308 25.7017 136.813 25.1199 136.893 25.1789C137.295 25.4863 137.585 25.9367 137.632 26.5289C137.643 26.6637 137.076 26.9939 137.055 27.079C136.967 27.4472 137.951 26.7172 137.883 27.0551C137.87 27.1251 137.421 27.4518 137.379 27.4965C136.712 28.1941 137.845 27.4414 137.891 27.4506C138.487 27.5444 137.539 28.6296 137.952 28.8409C138.003 28.8654 138.493 28.3495 138.601 28.4453C138.657 28.4937 138.71 28.5436 138.761 28.5948C140.238 29.9427 139.293 31.8309 137.678 33.0093C136.981 33.4792 136.09 33.6758 135.128 33.5561C134.965 33.5376 134.83 33.0181 134.794 32.963C134.231 32.1054 134.727 33.3764 134.709 33.4415C134.547 33.9258 133.758 33.0354 134.225 34.607C132.619 34.7393 131.632 36.2015 129.661 35.5077C129.636 35.5004 129.388 34.8769 129.341 34.8648C128.769 34.7131 129.282 35.6235 129.534 36.9094C129.596 37.2328 128.748 35.9289 128.682 35.8349C128.442 35.4878 128.099 34.5483 128.043 34.4855C127.593 33.996 128.991 36.983 128.735 37.1005C128.725 37.0992 128.508 36.5313 128.461 36.4861C128.316 36.344 128.35 36.5936 128.198 36.4331C127.847 36.0612 127.134 34.6251 127.293 35.5771C127.314 35.7003 128.13 37.3845 127.865 37.4072C127.76 37.4145 127.367 37.627 127.205 37.5669C127.043 37.507 126.873 36.9226 126.854 36.9024C126.225 36.3113 126.204 35.9585 125.569 34.9499C124.937 33.9451 126.126 36.4847 126.192 36.7981C126.258 37.1107 125.766 36.6106 125.617 36.4264C125.469 36.2422 125.381 35.8619 125.28 35.7656C124.614 35.1368 125.707 37.0992 125.782 37.553C125.961 38.6271 124.919 36.8147 124.607 36.7304C124.522 36.7078 124.765 37.1181 124.728 37.1832C124.576 37.4358 124.184 36.8996 124.175 37.554C124.174 37.6606 124.476 38.8938 123.975 38.112C123.903 37.9991 123.747 37.5016 123.606 37.4367C123.395 37.3393 123.1 37.3452 123.02 37.5696C122.96 37.7355 123.43 38.4619 123.184 38.2801C123.074 38.1988 122.989 37.6909 122.8 37.5762C122.612 37.4613 122.324 37.611 122.217 37.6762C122.112 37.7412 122.432 38.3083 122.441 38.3522C122.486 38.6053 122.394 38.9857 122.375 38.9934C121.436 39.4873 120.117 38.8655 119.315 39.5977C119.252 39.6543 119.567 40.2624 119.56 40.2775C119.417 40.6488 118.91 38.8917 118.497 38.4063C119.062 39.6723 118.86 39.4851 118.741 39.7004C118.684 39.8052 118.939 40.28 118.952 40.3339C119.141 41.1391 118.643 40.2062 118.537 40.0172C118.145 39.3223 118.416 40.2241 118.153 39.7599C117.892 39.2993 117.723 38.5253 117.556 38.6061C117.7 39.0839 118.328 40.2264 118.279 40.4749C118.094 41.4146 116.78 40.8578 116.345 40.9218C115.91 40.9865 115.815 41.1237 115.518 41.0515C114.979 40.9207 115.494 41.7497 115.399 42.2632C115.303 42.777 114.543 40.5312 114.315 40.0746C114.088 39.6177 114.244 40.1193 114.094 39.8783C113.944 39.6373 113.913 39.2771 113.767 39.2226C113.622 39.1682 113.67 40.1242 113.83 40.6333C114.169 41.7115 114.742 42.7566 114.303 42.4847C114.277 42.4683 114.099 41.8693 114.013 41.8359C113.339 41.5895 112.813 41.766 112.163 41.566C112.073 41.5375 111.881 40.8691 111.826 40.8452C111.253 40.594 111.826 41.6233 112.07 42.9204C111.494 41.2924 110.985 40.3575 110.671 40.4687C110.481 40.535 110.785 41.2254 110.855 41.7681C110.876 41.9316 110.556 41.5001 110.66 41.8402C110.996 42.9523 111.588 44.1145 111.076 43.7577C111.053 43.7403 110.872 43.1306 110.809 43.1136C110.4 43.0009 110.794 44.1478 110.499 44.4168C110.268 44.6279 109.523 44.1189 109.172 44.1213C108.499 42.3013 108.367 42.825 108.713 44.1235C108.493 44.1467 108.302 44.2978 108.044 44.1955C107.956 44.1609 107.806 43.6174 107.776 43.5635C107.32 42.7167 107.681 43.9705 107.655 44.0344C107.354 44.6725 106.636 43.8829 106.512 44.9511C106.508 44.9894 106.935 46.2683 106.483 45.3845C106.453 45.3233 106.396 44.6926 106.168 44.7234C105.939 44.7545 105.301 44.2136 105.214 44.9054C105.193 45.0722 105.371 46.169 104.945 45.4119C104.887 45.3089 104.782 44.9363 104.683 44.7427C104.369 44.1261 104.765 45.4307 104.282 44.3731C103.799 43.3157 103.304 42.5695 103.267 43.4256C103.265 43.4507 103.543 44.4968 103.443 44.5124C103.285 44.5363 103.002 44.3943 102.85 44.4529C102.777 44.4813 103.037 45.1012 103.028 45.1171C102.956 45.2169 102.877 45.2813 102.793 45.3199L102.835 45.3044C102.491 45.4875 102.027 45.2101 101.524 45.1938C101.407 45.1896 101.499 46.1443 101.029 45.5603C100.512 44.9229 99.4074 41.8118 99.2324 42.747C99.1565 43.1243 100.653 47.0301 99.4151 45.2196C98.9962 46.0059 97.9088 45.306 97.6117 46.3221C97.5978 46.3675 98.0464 47.4479 97.9744 47.4678C97.8662 47.4954 97.5566 47.0429 97.4693 47.0486C97.0977 47.0603 97.0502 47.6169 96.7368 47.7086C96.6186 47.7444 96.3798 47.2325 96.236 47.2773C96.092 47.323 96.3756 48.0148 96.0262 47.8025C95.7625 47.6392 94.8675 46.4057 94.6 46.3581C95.3522 47.6507 95.216 47.6947 95.2111 48.1576C95.2107 48.2471 95.5207 48.6682 95.5344 48.7335C95.5966 49.009 95.3034 48.682 95.3827 48.9754C95.4015 49.0459 95.6654 49.4832 95.696 49.5654C95.9681 50.2798 95.1721 49.4205 95.0321 49.272C94.5015 48.7068 94.789 49.3102 94.5308 49.1187C94.2715 48.928 94.2247 48.5163 94.0097 48.4367C93.5627 48.2735 93.2891 48.5453 93.0273 48.6862C92.9247 48.745 93.3621 49.2741 93.3559 49.2958C93.2465 49.5722 92.6438 49.0996 93.2751 50.3093C91.2106 47.4645 93.3394 50.6741 92.6661 50.2761C92.6122 50.2436 91.6677 48.8775 91.622 48.6157C91.5765 48.354 91.9961 48.6991 91.9109 48.3007C91.8906 48.2074 91.2088 46.7943 91.1815 46.6997C90.9634 45.9628 92.3396 48.0278 92.4228 48.1362C93.3294 49.301 92.6245 47.7616 92.6187 47.6278C92.5836 47.0201 92.9858 47.1787 92.9983 46.7242C93.0076 46.4298 92.1646 45.0402 92.3049 45.0119C92.7737 44.916 94.0697 46.7817 93.4163 44.8822C93.2785 44.4765 92.2972 42.9926 93.2893 44.0293C93.3526 44.0941 94.2037 45.0765 93.9173 44.3088C93.8814 44.2118 93.6221 43.7637 93.6206 43.7144C93.6157 43.3925 93.9126 43.6978 93.9624 43.4426C94.0136 43.1866 94.0514 42.828 94.3089 42.8865C94.4652 42.9201 95.0587 43.695 95.2197 43.8763C95.6803 44.4001 95.2996 43.3386 95.773 44.0198C96.2461 44.7059 96.6762 45.901 97.1412 46.2598C96.5201 45.0668 95.894 43.8363 95.2765 42.6327C95.8071 42.4063 96.5029 42.5412 96.9869 42.2396C97.0468 42.2007 96.6652 41.5822 96.7221 41.5235C96.9644 41.2785 97.4399 41.6233 97.6539 41.2977C97.8204 41.0422 97.762 40.2276 97.9341 39.9396C98.7135 41.2768 98.8615 40.6407 99.1861 40.6548C99.2989 40.6593 99.4531 41.0405 99.5709 41.136C100.01 41.4884 99.3654 40.2847 99.3509 40.0584C99.2994 39.0893 100.502 41.9229 100.811 41.7142C100.826 41.7046 100.43 40.0948 100.424 39.9869C100.374 39.2892 100.67 40.5037 100.838 40.5672C100.884 40.5848 100.931 40.6068 100.976 40.6295C101.024 40.6203 101.156 40.5529 101.204 40.5465C101.432 40.6933 101.636 40.8567 101.711 40.4014C101.737 40.2426 101.577 39.217 101.968 39.9198C102.019 40.0117 102.184 40.5286 102.209 40.5538C102.643 40.9651 102.099 39.3499 102.06 38.7532C102.02 38.1568 102.633 39.1899 102.791 39.4938C103.202 40.28 102.82 39.8808 102.841 39.9644C103.097 40.9597 103.209 40.7346 103.367 40.7713C103.933 42.3435 104.084 42.1849 103.529 40.8029C103.468 40.6521 103.418 40.8344 103.367 40.7713C102.943 39.1828 103.07 38.9165 103.795 40.2857C104.136 40.9271 104.316 41.7514 104.528 41.3518C104.625 41.171 104.186 40.1057 104.206 39.7658C104.252 38.9905 104.982 39.8693 105.219 39.6038C105.305 39.5076 104.987 38.9527 105.038 38.8666C105.172 38.6363 105.504 39.0187 105.614 38.7206C105.624 38.6928 105.355 38.0891 105.412 38.0593C105.839 37.822 106.382 38.0716 106.86 37.9055C107.092 37.825 107.373 37.3307 107.636 37.3092C108.089 37.269 108.939 37.9702 109.208 37.6168C109.384 37.3891 109.095 36.7935 109.031 36.3366C108.904 35.4518 109.803 36.7758 109.937 36.9828C109.941 36.9897 109.801 37.2115 110.029 37.4858C110.347 38.119 109.936 36.9865 109.937 36.9828C110.023 37.1167 110.472 37.1018 110.504 36.9536C110.521 36.8728 110.269 36.3007 110.282 36.2695C110.603 35.5428 111.066 35.1875 111.706 35.2456C111.72 35.2536 111.966 35.9078 111.996 35.9184C112.42 36.083 112.298 35.21 112.361 34.6373C112.423 34.0646 112.686 34.141 113.289 35.1906C113.423 34.9726 113.899 35.351 114.18 35.5835C114.461 35.816 113.965 34.549 113.968 34.5184C114.071 33.5449 114.62 34.1607 115.115 34.0857C115.35 34.0525 115.698 33.6929 115.871 33.4588C116.006 33.2718 116.24 33.5193 116.328 33.2608C116.34 33.2261 116.081 32.6779 116.079 32.6535C115.983 31.9071 116.471 33.3087 116.613 33.5359C117.128 34.362 117.416 34.7963 117.48 34.2776C117.495 34.1585 116.821 32.1282 116.872 31.9709C116.94 31.7698 117.191 32.4937 117.255 32.2651C117.261 32.2462 117.073 31.8138 117.166 31.7967C117.595 31.7115 118.128 31.7809 118.517 31.5609C118.571 31.5325 118.203 30.877 118.276 30.8248C118.618 30.5801 119.037 30.428 119.546 30.5876C119.672 30.6292 119.825 31.1336 119.907 31.2675C120.405 32.0765 120.027 30.7496 120.045 30.7136C120.451 29.8182 121.461 30.724 121.91 29.88C121.933 29.8316 121.622 28.3663 122.261 29.4571C122.303 29.5296 122.954 30.6473 122.708 29.7943C122.692 29.741 122.343 29.1722 122.508 29.1721C122.674 29.1717 122.714 28.6695 123.2 29.2482C123.353 29.4303 124.019 30.5371 123.779 29.5239C123.762 29.4534 123.087 27.2221 123.841 28.6313C123.965 28.8634 124.644 30.4088 124.5 29.5241C124.471 29.3529 124.243 29.0432 124.252 28.7808C124.265 28.3771 124.671 28.6898 124.562 27.9134C124.542 27.7762 124.217 26.6657 124.696 27.4026C124.771 27.518 124.969 28.0469 125.059 28.0755C125.482 28.2149 125.645 27.7259 126.112 27.9407C126.277 28.0157 126.602 28.869 126.817 29.0391C127.03 29.2096 127.358 29.3175 127.303 28.8844C127.247 28.4514 126.511 27.1924 126.639 27.0052C127.191 26.1956 128.316 26.6123 129.134 26.3681C129.255 26.332 128.94 25.9061 129.105 25.818C129.712 25.492 130.56 24.555 131.575 25.2962C132.38 25.8933 132.129 26.7563 132.61 26.9271C132.839 27.0088 132.294 25.3991 132.309 25.3334C132.454 24.6675 133.029 25.2219 133.272 24.8528C133.321 24.7767 132.959 24.1913 133.004 24.1334C133.095 24.0114 133.254 24.0262 133.402 24.0271L130.813 34.5763C130.802 34.4912 130.785 34.4103 130.723 34.3659C130.652 34.3168 130.247 34.6462 130.233 34.5618C130.193 34.3615 130.268 34.0996 130.541 33.6548C130.565 33.6139 131.147 33.3018 131.079 33.1764C130.967 32.9735 131.163 32.4452 130.607 32.5505C130.439 32.5823 129.512 33.3344 130.042 32.6795C130.153 32.5434 131.289 31.6677 130.206 32.3006C130.025 32.4041 128.527 33.2145 129.248 32.3972C129.438 32.1819 130.265 31.3423 130.062 31.3867C130.031 31.3956 129.573 31.8477 129.474 31.8268C129.134 31.7479 128.985 31.4658 128.646 31.3785C128.553 31.3549 128.124 31.8747 128.003 31.8262C127.668 31.6925 127.532 31.2784 127.481 30.9035C127.462 30.7638 127.929 30.4629 127.969 30.4172C128.61 29.6718 127.567 30.4751 127.479 30.4913C126.948 30.5819 127.27 30.0139 126.971 29.9234C126.89 29.8975 126.456 30.3524 126.405 30.3787C125.897 30.6288 126.812 29.9651 126.841 29.8109C126.927 29.3797 126.692 29.1927 126.449 29.043C126.359 28.9887 125.895 29.5585 125.821 29.5044C125.379 29.2008 125.057 28.7437 125.004 28.0942C124.995 27.9703 125.448 27.6375 125.529 27.5361C126.091 26.8276 125.053 27.4989 124.935 27.5426C124.4 27.7443 124.707 27.3483 124.51 27.2709C123.538 26.8972 122.992 25.8358 122.527 25.0504C121.918 24.0287 121.683 23.0143 120.811 22.307C120.756 22.2621 120.269 22.8292 120.216 22.7971C119.544 22.3583 119.214 21.6003 118.509 21.1843C118.453 21.1495 118.012 21.708 117.904 21.6687C117.679 21.5916 117.519 21.372 117.529 21.0603C117.533 20.9091 118.065 20.5875 118.06 20.4439C118.049 20.1079 117.902 19.8855 117.644 19.7831C117.533 19.7408 117.131 20.3616 117.027 20.2674C116.308 19.6348 115.564 19.0554 115.548 17.7098C115.547 17.6174 116.549 16.5462 116.25 16.6432C115.953 16.9216 115.613 17.2583 115.3 17.5606C114.154 16.7332 113.542 15.395 112.607 14.3447C112.568 14.3006 112.089 14.921 112.01 14.8384C111.551 14.3607 110.944 14.057 111.011 13.0309C111.017 12.9299 112.009 11.9891 111.722 11.9945C111.671 11.9963 111.33 11.9133 111.066 12.0683C111.027 12.0924 110.614 12.5817 110.533 12.5267C110.068 12.1984 109.757 11.6808 109.636 11.0087C109.617 10.8994 110.166 10.4873 110.157 10.4053C110.089 9.82705 109.373 9.84171 109.5 9.09608C109.587 8.59575 110.493 7.84207 111.201 6.9151C111.301 6.78426 111.191 6.63823 111.66 6.15616C112.839 4.94357 114.21 3.69622 115.459 2.39641C115.728 2.11652 115.261 2.24124 116.026 1.67909C116.077 1.64175 116.422 1.5456 116.677 1.35116C116.854 1.21687 117.299 0.694944 117.542 0.539219C117.784 0.383683 117.427 0.836772 117.733 0.674897C118.042 0.510122 118.56 -0.0717387 118.769 0.00731421ZM115.443 36.6186C115.84 37.1609 114.945 34.9418 115.006 35.5364C115.01 35.5677 115.423 36.5921 115.443 36.6186ZM97.3075 44.1602C97.9739 45.0069 97.4247 43.548 96.9202 42.888C96.4121 42.231 97.1031 43.9048 97.3075 44.1602ZM95.654 45.9073C96.2776 46.5123 94.6737 43.522 94.7586 44.2598C94.763 44.3017 95.6175 45.8724 95.654 45.9073ZM111.943 7.19212C111.964 7.16807 111.894 7.05397 111.869 7.07404C111.283 7.56227 111.424 7.79005 111.943 7.19212ZM94.1644 47.7557C94.4703 48.1063 94.3857 47.5372 94.0055 47.1006C93.6979 46.7503 93.7818 47.3208 94.1644 47.7557ZM124.126 35.6658C124.143 35.6973 124.242 35.6887 124.158 35.5053C123.889 34.9146 123.844 35.1348 124.126 35.6658ZM91.0695 49.8052C91.5949 49.6086 93.4171 51.7634 92.7523 51.8254C92.6317 51.8369 92.4489 50.9538 92.1958 50.8186C91.7329 50.5736 92.5712 52.1298 91.8361 51.4865C91.702 51.3685 91.036 49.8112 91.0681 49.8014C91.0685 49.8027 91.069 49.8039 91.0695 49.8052ZM116.628 39.2383C116.643 39.2663 116.774 39.2445 116.765 39.2143C116.538 38.486 116.275 38.5293 116.628 39.2383ZM129.701 34.7693C129.736 34.8275 130.037 34.7583 130.02 34.6979C129.643 33.5037 129.035 33.6394 129.701 34.7693ZM109.149 44.0746C109.284 44.8402 109.154 44.9844 108.714 44.1242C108.864 44.1227 109 44.0802 109.149 44.0746Z" fill="#FE8B00"/>
<path d="M120.05 37.2095C119.355 37.3721 118.478 37.0904 117.821 36.7402C117.615 36.6315 117.75 36.2155 117.609 36.1214C117.333 35.9378 117.052 36.1276 116.782 35.9129C116.693 35.8397 116.854 35.1772 116.759 35.1157C116.24 34.7838 115.717 34.9208 115.181 34.7425C112.535 33.8626 109.91 33.4406 107.205 32.9668C106.316 32.8112 105.262 32.1363 104.317 32.347C104.208 32.3722 104.237 32.9646 104.213 33.0119C103.847 33.7353 104.025 32.5535 103.824 32.3831C103.023 31.7101 102.097 31.6016 101.277 31.7826C100.93 31.8614 101.206 33.0502 100.899 32.3743C100.878 32.3286 101 31.7085 100.91 31.6364C100.706 31.4744 100.295 31.5632 100.132 31.5043C99.8176 31.3877 99.7666 31.3912 99.4661 31.3673C99.0569 31.3293 98.58 30.9913 98.1332 31.109C98.0374 31.136 98.127 31.7837 97.9711 31.8846C97.8152 31.9853 97.4204 31.9095 97.294 31.7512C97.1677 31.5928 97.2519 31.0921 97.2343 30.9754C97.0895 29.9902 96.5585 31.3156 96.4977 31.3459C95.3877 31.8576 94.5025 31.0411 93.488 30.9926C92.7189 30.9575 91.8834 31.1714 91.1526 31.1018C90.2812 31.0164 89.5575 30.6348 88.7084 30.6565C88.6189 30.658 88.6897 31.4166 88.5803 31.4201C87.4152 31.4558 86.2652 31.3241 85.1342 30.7678C85.0205 30.7114 85.197 30.0555 85.0849 29.9595C84.3942 29.3861 83.3258 28.035 82.7899 30.9015C82.3128 30.7704 81.7387 30.6324 81.3277 30.0354C81.063 29.6511 81.3601 28.9397 81.0062 29.235C80.9265 29.3008 81.0034 29.9361 80.8868 29.987C80.3963 30.2008 79.8739 29.9766 79.3803 30.2863C79.2799 30.3508 79.2871 30.9178 79.2558 31.0188C78.9958 31.8363 78.6582 30.4586 78.5769 30.3566C77.9607 29.5955 77.4769 29.871 76.8829 29.8339C76.7444 29.825 76.8841 30.5907 76.75 30.6094C76.0529 30.6963 75.3392 30.6091 74.6709 30.2517C74.522 30.1703 74.6801 29.5266 74.6099 29.4546C74.3 29.145 74.1916 30.3664 73.8952 30.0933C73.8329 30.0374 73.8847 29.4838 73.8748 29.4226C73.7194 28.4612 73.5217 29.8115 73.4739 29.8401C72.9782 30.1601 72.6576 29.269 72.2364 29.0318C72.143 28.9785 72.0446 28.9582 71.938 28.9922C71.8686 29.0157 72.0051 29.7216 71.811 29.7449C70.514 29.9046 69.149 29.6787 67.8835 29.0889C67.6865 28.9981 67.8402 28.4741 67.8291 28.4088C67.6474 27.3888 67.4848 28.7465 67.4187 28.7963C66.8964 29.1539 66.4419 28.0028 66.0616 29.6163C63.9021 29.0092 61.7249 29.8811 59.5971 28.396C59.5699 28.3788 59.6294 27.7093 59.5751 27.6778C58.9196 27.2914 59.0308 28.335 58.5788 29.6025C58.4651 29.9208 58.1545 28.3779 58.1265 28.2648C58.0249 27.8478 58.1507 26.8523 58.1158 26.7713C57.8264 26.1353 57.8285 29.4334 57.4255 29.4288C57.4129 29.4232 57.4744 28.817 57.4414 28.7562C57.3388 28.5652 57.231 28.805 57.1307 28.5946C56.9013 28.108 56.8417 26.5046 56.471 27.4323C56.4241 27.5528 56.4687 29.4241 56.1116 29.3311C55.9695 29.2924 55.3345 29.3164 55.1572 29.193C54.9804 29.0697 55.1103 28.4684 55.0979 28.4422C54.6306 27.6392 54.8162 27.3112 54.5915 26.1282C54.3667 24.9497 54.3993 27.7544 54.2982 28.0662C54.1971 28.3771 53.8545 27.7154 53.7707 27.4858C53.6871 27.2561 53.7991 26.8743 53.7239 26.744C53.2244 25.8925 53.4845 28.1332 53.3117 28.5763C52.9018 29.6255 52.6233 27.5428 52.2643 27.3352C52.1673 27.2791 52.2418 27.7536 52.1545 27.7969C51.8087 27.9624 51.608 27.3114 51.2083 27.9023C51.1428 27.9986 50.8118 29.2456 50.618 28.3261C50.5904 28.1935 50.6777 27.6761 50.5327 27.5586C50.3162 27.3823 49.9227 27.2652 49.6849 27.4362C49.5093 27.5628 49.7012 28.4185 49.4842 28.1512C49.3877 28.0318 49.5733 27.534 49.3915 27.3515C49.2112 27.169 48.7413 27.1867 48.567 27.2024C48.391 27.2185 48.4815 27.867 48.4669 27.9105C48.3788 28.1597 48.0381 28.4691 48.0081 28.4681C46.4931 28.5342 45.1067 27.4319 43.6363 27.7834C43.5207 27.8101 43.593 28.4936 43.5753 28.5047C43.1782 28.7882 43.502 26.9743 43.2295 26.3647C43.2603 27.751 43.0989 27.4989 42.8183 27.6492C42.683 27.7227 42.753 28.2598 42.7404 28.3147C42.5354 29.1286 42.4025 28.0748 42.3678 27.8592C42.2406 27.0661 42.093 28.0014 42.0068 27.4712C41.9207 26.9451 42.131 26.1671 41.8648 26.1754C41.7872 26.6711 41.9769 27.9689 41.7736 28.1778C41.0066 28.968 39.5794 27.9429 38.9673 27.8342C38.3536 27.7256 38.152 27.8162 37.7944 27.6352C37.153 27.308 37.3841 28.2711 36.9819 28.7096C36.578 29.1481 36.7837 26.782 36.7281 26.2729C36.6735 25.7641 36.6091 26.2873 36.5396 26.0074C36.4702 25.7276 36.6245 25.3823 36.4589 25.2766C36.2934 25.171 35.8342 26.074 35.7728 26.6058C35.644 27.7325 35.8416 28.9163 35.4064 28.4988C35.3814 28.4741 35.4653 27.852 35.3695 27.7887C34.6098 27.3066 33.8073 27.2739 33.0425 26.8476C32.9379 26.788 33.0339 26.0959 32.9731 26.0534C32.3384 25.6084 32.5618 26.7766 32.2082 28.0724C32.2921 26.3467 32.1027 25.2902 31.6164 25.2785C31.324 25.2709 31.372 26.0248 31.181 26.5555C31.1239 26.7155 30.9171 26.1974 30.8794 26.5517C30.7536 27.7102 30.9433 29.0079 30.4476 28.49C30.4258 28.4654 30.4971 27.8313 30.4217 27.7926C29.9344 27.5399 29.8727 28.7518 29.3423 28.8972C28.9251 29.0113 28.1886 28.2704 27.719 28.1492C27.7333 26.2088 27.2865 26.6521 27.1023 27.9896C26.7954 27.9342 26.4627 28.0091 26.1647 27.8236C26.0622 27.7604 26.1307 27.1987 26.1178 27.138C25.9238 26.1854 25.7886 27.4867 25.7227 27.5376C25.0077 28.0323 24.4241 27.0448 23.7335 28.0078C23.709 28.0425 23.6671 29.3903 23.487 28.4059C23.4753 28.338 23.701 27.7251 23.381 27.6772C23.0609 27.6292 22.456 26.9058 22.0067 27.5298C21.898 27.68 21.622 28.7738 21.4021 27.9186C21.3728 27.8025 21.4055 27.416 21.3633 27.2008C21.2264 26.5152 21.1503 27.8775 20.9923 26.7199C20.8341 25.5624 20.5029 24.6952 20.0512 25.4933C20.0368 25.5165 19.929 26.5961 19.787 26.5789C19.5605 26.5505 19.2383 26.3252 19.0006 26.332C18.8867 26.3357 18.959 27.0063 18.9392 27.0185C18.1759 27.3935 17.642 26.7953 16.8233 26.5353C16.6742 26.4863 16.2387 27.4003 15.9522 26.6773C15.6366 25.8858 15.9643 22.5942 15.2356 23.378C14.9413 23.6915 14.5665 27.8675 14.036 25.7035C13.0037 26.2392 12.0667 25.1315 11.028 25.8967C10.9811 25.9306 10.8341 27.0961 10.7263 27.0802C10.5657 27.0544 10.4776 26.5096 10.3627 26.4737C9.88127 26.3095 9.4389 26.7754 8.97133 26.7029C8.79374 26.6765 8.856 26.1132 8.64394 26.0817C8.43254 26.0507 8.28804 26.7924 8.00536 26.4341C7.79077 26.1611 7.57609 24.645 7.29014 24.4682C7.27901 25.9636 7.08282 25.9328 6.73271 26.3275C6.66541 26.4041 6.73752 26.9246 6.70567 26.9877C6.57608 27.2559 6.45609 26.8245 6.33277 27.1165C6.30278 27.1867 6.30131 27.6974 6.27679 27.7835C6.06829 28.5356 5.72405 27.3868 5.66479 27.1868C5.43696 26.4272 5.33507 27.0914 5.16244 26.7922C4.9907 26.4931 5.24757 26.1193 5.0469 25.9377C4.63096 25.5623 4.09447 25.6448 3.66878 25.6213C3.49894 25.6151 3.61479 26.2968 3.59049 26.3117C3.2397 26.4846 2.88135 25.7595 2.68844 27.1173C2.4471 23.6063 2.47887 27.4579 1.98001 26.755C1.94067 26.6982 1.89072 25.0379 2.04163 24.7941C2.19256 24.5506 2.42113 25.0696 2.62985 24.6896C2.67845 24.6005 2.96455 23.0446 3.00388 22.9504C3.31022 22.2138 3.35328 24.695 3.36951 24.8312C3.55303 26.3019 3.90198 24.6258 3.9937 24.51C4.41356 23.9793 4.76905 24.3282 5.11823 23.9495C5.34665 23.7047 5.36857 22.0794 5.54821 22.1292C6.15115 22.2937 6.3606 24.5609 6.92555 22.5951C7.04651 22.1759 6.92683 20.3995 7.35955 21.7964C7.3868 21.8844 7.70762 23.1623 7.89276 22.3541C7.91601 22.2521 7.91535 21.7345 7.946 21.691C8.15112 21.4097 8.28856 21.8221 8.51531 21.6247C8.74161 21.4272 9.01325 21.1328 9.27051 21.3084C9.42556 21.4134 9.62399 22.378 9.69798 22.6141C9.90695 23.2945 10.131 22.1792 10.2599 23.003C10.3899 23.8309 10.1351 25.0881 10.4762 25.6231C10.4892 24.2781 10.5186 22.8976 10.5393 21.545C11.2866 21.5926 12.0353 22.0277 12.7852 21.9686C12.8783 21.9599 12.7833 21.2368 12.8832 21.2089C13.3038 21.0942 13.6718 21.6098 14.1133 21.4048C14.454 21.2433 14.827 20.4779 15.1813 20.2852C15.3977 21.8244 15.9187 21.3022 16.3034 21.4432C16.4382 21.4918 16.4289 21.9029 16.5246 22.0371C16.8853 22.5333 16.717 21.1731 16.8161 20.9591C17.2408 20.046 17.2749 23.1244 17.7727 23.0487C17.7991 23.0458 18.1223 21.4051 18.1666 21.303C18.4484 20.6369 18.2127 21.8742 18.3885 21.9956C18.7076 22.2174 18.9359 22.6095 19.316 22.1292C19.427 21.987 19.6937 20.9645 19.9074 21.7558C19.9355 21.8594 19.9193 22.4018 19.942 22.4336C20.3524 22.9635 20.3647 21.2593 20.5996 20.6824C20.8349 20.1056 21.1927 21.2825 21.2677 21.6216C21.4611 22.499 21.1179 21.9963 21.1087 22.0824C20.9852 23.1066 21.2484 22.9305 21.4526 23.0174C21.48 24.6884 21.7642 24.5885 21.6632 23.1006C21.6517 22.9381 21.4933 23.0937 21.4526 23.0174C21.6331 21.3781 21.9458 21.1685 22.2873 22.7011C22.4471 23.4193 22.2944 24.2564 22.7822 23.9508C23.0034 23.8128 22.9198 22.6621 23.1151 22.3487C23.5586 21.6336 24.1421 22.7079 24.6035 22.5395C24.771 22.4784 24.609 21.8483 24.7235 21.7849C25.0273 21.6145 25.2935 22.0875 25.5973 21.846C25.6248 21.8233 25.5589 21.1639 25.6532 21.1557C26.3639 21.0804 27.0006 21.504 27.7463 21.5174C28.1074 21.5235 28.7529 21.1614 29.1314 21.2355C29.7851 21.36 30.5759 22.3208 31.1333 22.0896C31.498 21.9416 31.42 21.2819 31.5772 20.8331C31.8808 19.9631 32.406 21.5248 32.4763 21.7666C32.4785 21.7746 32.1666 21.929 32.3317 22.2681C32.426 22.9737 32.4728 21.7696 32.4763 21.7666C32.5229 21.9228 33.1427 22.0745 33.2656 21.9489C33.3332 21.8802 33.2977 21.2553 33.333 21.2313C34.1748 20.6751 35.0048 20.5195 35.8489 20.8151C35.8638 20.8277 35.8384 21.5265 35.8735 21.5476C36.3639 21.8603 36.681 21.0068 37.0862 20.501C37.4919 19.9955 37.8062 20.1669 38.0421 21.3677C38.3492 21.2181 38.7846 21.7507 39.0341 22.0738C39.2837 22.3969 39.3255 21.0367 39.3478 21.0099C40.0387 20.1527 40.4362 20.9336 41.1525 21.0588C41.4938 21.1207 42.1645 20.9275 42.5356 20.781C42.8293 20.663 43.0033 20.983 43.2735 20.7809C43.31 20.7539 43.2772 20.148 43.2885 20.1247C43.5932 19.402 43.4392 20.8818 43.4993 21.1466C43.717 22.1098 43.8519 22.6229 44.2367 22.1731C44.3257 22.0701 44.5957 19.9399 44.7602 19.8164C44.9723 19.6597 44.8872 20.4234 45.1091 20.2398C45.1281 20.2248 45.1276 19.7534 45.2634 19.7751C45.8962 19.8701 46.5682 20.1496 47.2304 20.1078C47.3201 20.1039 47.2113 19.3551 47.341 19.3372C47.9511 19.2536 48.6071 19.2869 49.1983 19.6424C49.3435 19.7322 49.2472 20.2549 49.2774 20.4107C49.4632 21.3531 49.7509 19.989 49.7965 19.9633C50.8801 19.3167 51.7024 20.5621 52.8055 19.9852C52.8644 19.9512 53.3441 18.4913 53.5371 19.7502C53.5504 19.834 53.7401 21.1219 53.9307 20.245C53.9426 20.1901 53.8231 19.5268 54.0442 19.5969C54.2653 19.6668 54.627 19.229 54.9213 19.9599C55.0139 20.1901 55.2266 21.4753 55.5286 20.4567C55.5483 20.3856 56.0238 18.0798 56.1617 19.6767C56.184 19.9395 56.1354 21.6268 56.4895 20.766C56.5572 20.5991 56.4433 20.2211 56.6189 19.9884C56.8878 19.6296 57.2308 20.0863 57.5697 19.3391C57.6286 19.2068 57.8876 18.0647 58.0696 18.9369C58.0981 19.0735 58.0323 19.6361 58.134 19.7006C58.618 20.01 59.1273 19.6406 59.6211 20.038C59.7949 20.1777 59.691 21.0871 59.8702 21.334C60.0495 21.5808 60.4132 21.8213 60.6101 21.4081C60.8073 20.9948 60.6226 19.5399 60.9099 19.4284C62.1683 18.9442 63.3874 19.8174 64.6287 19.9658C64.8122 19.988 64.6699 19.4656 64.9408 19.461C65.9497 19.4417 67.6938 18.9914 68.5377 20.115C69.2127 21.0148 68.3216 21.6677 68.8458 22.0396C69.1001 22.2171 69.4184 20.5363 69.482 20.4847C70.1039 19.9595 70.4997 20.7171 71.0569 20.5017C71.1713 20.457 71.0776 19.7703 71.1748 19.7398C71.507 19.6296 71.8439 19.9438 72.1578 19.8962C72.2986 19.8733 72.2867 19.3503 72.4145 19.3941C72.4412 19.4027 72.4677 19.4123 72.4938 19.423C72.7705 19.5346 73.0179 19.7634 73.2813 20.2177C73.3075 20.2631 73.104 20.9076 73.3325 20.9382C73.7038 20.9857 74.1416 21.4814 74.5876 20.9953C74.7188 20.849 74.7591 19.6555 75.0074 20.4878C75.0594 20.6617 74.9443 22.0928 75.2977 20.8638C75.3573 20.6596 75.9377 19.0052 76.1666 20.09C76.2273 20.3755 76.3678 21.5537 76.5259 21.3742C76.5475 21.3454 76.4846 20.7017 76.613 20.6431C77.0658 20.4479 77.5255 20.531 77.9895 20.3452C78.114 20.2944 77.953 19.625 78.1378 19.5704C78.6467 19.4192 79.2622 19.6091 79.7443 19.8337C79.9228 19.9178 79.7785 20.4629 79.7896 20.5232C79.9675 21.5032 80.1381 20.1948 80.211 20.1207C80.6637 19.6777 80.9711 20.3062 81.3776 20.1576C81.4905 20.1182 81.4344 19.4894 81.4586 19.4344C81.7085 18.8975 81.4961 20.0153 81.6369 20.1446C82.0311 20.5103 82.4843 20.4769 82.8951 20.4125C83.046 20.3879 82.9051 19.6558 83.0407 19.6421C83.852 19.5479 84.6733 19.6499 85.4426 20.0821C85.5865 20.1648 85.4711 20.7197 85.4965 20.8486C85.6709 21.7501 86.0292 20.545 86.105 20.432C86.4482 19.9156 86.5568 20.4152 86.8465 20.3351C88.2576 19.9346 89.9772 20.3397 91.2799 20.6039C92.9859 20.9452 94.2912 21.5428 95.9307 21.4893C96.0355 21.4867 95.9688 20.7382 96.0596 20.7264C97.229 20.6076 98.3498 20.9588 99.5216 20.8083C99.6177 20.7973 99.5194 20.0855 99.675 20.0441C99.9949 19.9544 100.387 20.0146 100.692 20.2573C100.841 20.3744 100.599 20.9669 100.75 21.0724C101.1 21.3194 101.484 21.3915 101.861 21.2998C102.021 21.2593 101.825 20.5255 102.03 20.529C103.437 20.538 104.817 20.4952 106.175 21.5133C106.268 21.5832 106.263 23.0516 106.486 22.7835C106.526 22.3784 106.555 21.9006 106.588 21.467C108.638 21.3572 110.619 21.9913 112.65 22.2009C112.736 22.2096 112.637 21.4249 112.803 21.4377C113.764 21.5112 114.713 21.3574 115.646 22.1923C115.739 22.2741 115.599 23.6344 115.9 23.447C115.953 23.4127 116.397 23.2593 116.529 22.9707C116.547 22.927 116.51 22.2854 116.651 22.276C117.468 22.2328 118.307 22.4344 119.09 22.8769C119.216 22.9496 119.032 23.6181 119.122 23.6757C119.757 24.0793 120.508 23.6118 121.096 24.2691C121.49 24.7115 121.256 25.8726 121.403 27.0407C121.424 27.2055 121.683 27.2487 121.652 27.9205C121.574 29.61 121.324 31.449 121.256 33.2508C121.241 33.6388 121.619 33.2449 121.349 34.1672C121.331 34.2289 121.057 34.5226 120.973 34.836C120.915 35.0527 120.948 35.7402 120.841 36.0153C120.733 36.2902 120.674 35.7117 120.505 36.0321C120.336 36.3566 120.349 37.1372 120.05 37.2095ZM40.1542 23.5181C40.3847 24.1727 40.4324 21.7802 40.176 22.3512C40.1636 22.3817 40.1423 23.486 40.1542 23.5181ZM12.0272 23.8326C12.331 24.8881 12.539 23.3363 12.3252 22.5212C12.1113 21.7069 11.9346 23.5126 12.0272 23.8326ZM8.87521 24.6023C9.23126 25.4344 9.28795 22.0414 8.90634 22.7273C8.88413 22.766 8.85438 24.5539 8.87521 24.6023ZM120.343 27.2999C120.344 27.3318 120.529 27.3752 120.536 27.3441C120.686 26.5925 120.316 26.5062 120.343 27.2999ZM5.74674 25.4407C5.85827 25.8997 6.17887 25.3699 6.04058 24.7991C5.92932 24.34 5.60791 24.8698 5.74674 25.4407ZM52.2671 26.1672C52.2704 26.2029 52.4044 26.2364 52.4039 26.0349C52.4018 25.3856 52.2126 25.5668 52.2671 26.1672ZM0.434504 25.4796C1.22293 25.6074 1.6982 28.4102 0.842179 28.0939C0.686978 28.0367 1.17662 27.2001 0.979121 26.9474C0.617738 26.4871 0.377252 28.2469 0.00679741 27.3039C-0.0601832 27.1313 0.389639 25.4661 0.435907 25.4757C0.435434 25.477 0.434976 25.4783 0.434504 25.4796ZM40.2732 26.3928C40.2778 26.4245 40.4651 26.4555 40.4697 26.4242C40.5755 25.6651 40.198 25.6022 40.2732 26.3928ZM60.1063 27.7496C60.1156 27.8171 60.5461 27.887 60.561 27.8252C60.8062 26.5867 59.9353 26.4417 60.1063 27.7496ZM27.7117 28.0974C27.507 28.8611 27.2636 28.9506 27.1032 27.9906C27.3055 28.042 27.5089 28.0499 27.7117 28.0974Z" fill="#FE8B00"/>
</svg>
