<svg width="220" height="84" viewBox="0 0 220 84" fill="none" xmlns="http://www.w3.org/2000/svg">
<path d="M179.389 21.6397C176.922 21.4259 173.748 20.6937 171.353 20.031C170.602 19.8239 171.052 19.4617 170.534 19.3003C169.518 18.9853 168.524 19.0543 167.527 18.7184C167.196 18.605 167.711 17.9978 167.362 17.8942C165.436 17.3304 163.57 17.2605 161.591 16.8738C151.875 14.9767 142.188 13.8782 132.19 13.0407C128.896 12.7641 124.897 11.991 121.471 12.1653C121.071 12.1861 121.293 12.782 121.216 12.8285C120.008 13.5409 120.434 12.3615 119.66 12.1848C116.591 11.4877 113.147 11.394 110.18 11.6234C108.915 11.7233 110.185 12.8921 108.912 12.238C108.823 12.1939 109.142 11.5666 108.795 11.5011C108.006 11.3531 106.522 11.4767 105.908 11.4347C104.731 11.3499 104.537 11.3592 103.427 11.371C101.913 11.3822 100.091 11.1146 98.4718 11.3076C98.1242 11.3507 98.6054 11.9775 98.0541 12.1045C97.502 12.2307 96.0366 12.2293 95.5385 12.0985C95.0399 11.9669 95.2291 11.4545 95.1372 11.3425C94.3773 10.3954 92.7314 11.8241 92.5192 11.8688C88.5759 12.6321 85.1347 12.088 81.4068 12.4009C78.5917 12.6394 75.593 13.1927 72.9241 13.4664C69.7309 13.7924 67 13.8064 63.9293 14.3378C63.6054 14.3934 64.1006 15.0804 63.7067 15.1499C63.1096 15.2556 62.5158 15.3598 61.9251 15.4619C58.3907 16.0731 54.8948 16.6782 51.3267 17.1558C50.9094 17.2114 51.2638 16.4337 50.8348 16.4518C48.22 16.5546 43.8349 16.5677 43.3538 19.8089C41.6858 20.2672 39.6967 20.9012 38.04 20.9571C36.9722 20.9952 37.5928 19.9519 36.5701 20.7185C36.3404 20.8915 36.9217 21.3299 36.5612 21.5448C35.047 22.448 33.2291 23.0682 31.8321 24.1366C31.5497 24.3548 31.8912 24.8172 31.8493 24.9527C31.4889 26.0581 29.645 25.4934 29.3261 25.5562C26.946 26.0127 25.6227 27.1361 23.8 28.2731C23.377 28.5388 24.2832 28.8612 23.8941 29.1388C21.8745 30.5696 19.7605 31.9904 17.6384 33.2152C17.165 33.4871 17.158 32.6702 16.9104 32.7751C15.8197 33.2526 16.3912 34.3653 15.3843 34.8554C15.1727 34.9613 14.9167 34.4524 14.8452 34.4327C13.7187 34.1273 14.1573 35.5386 14.0514 35.6698C13.3958 36.4982 12.6109 36.8962 11.8068 37.2748C11.0881 37.5525 10.3324 37.909 9.99158 38.6871C9.92416 38.857 10.7207 38.8689 10.5167 39.2979C9.8892 40.7098 9.88008 42.128 10.5343 43.703C11.4135 45.7244 12.5102 47.6488 13.779 49.4513C14.176 50.0065 13.4631 50.0134 13.4429 50.0876C13.1994 51.3143 14.5125 50.6892 14.7007 50.8C16.194 51.7329 16.8568 53.6729 18.784 53.037C24.6784 57.7657 32.5301 59.2536 39.7979 62.5065C39.8924 62.5464 39.5597 63.156 39.7495 63.2329C42.0162 64.1516 41.8199 63.0313 43.6353 62.1267C44.0895 61.8989 44.9726 63.6572 45.0594 63.7896C45.361 64.2766 44.7578 65.1699 44.871 65.2755C45.8235 66.1167 46.3043 62.8506 47.7561 63.1382C47.8007 63.1526 47.4913 63.7102 47.6021 63.7936C47.9429 64.0541 48.3633 63.8906 48.6946 64.1675C49.4502 64.8057 49.4654 66.4408 50.9377 65.7674C51.1254 65.679 51.2144 63.7941 52.5031 64.1215C53.0153 64.2543 55.3251 64.6388 55.9501 64.8723C56.5738 65.1064 56.0254 65.621 56.0668 65.6549C57.6694 66.7491 56.9527 66.9572 57.6226 68.2742C58.2911 69.586 58.5364 66.7818 58.9468 66.5364C59.3567 66.2918 60.5274 67.1659 60.8 67.4463C61.0742 67.727 60.616 68.035 60.8727 68.2118C62.5779 69.3721 61.9286 66.9851 62.6179 66.6552C64.2461 65.874 65.0039 68.1224 66.285 68.5631C66.6317 68.6824 66.4257 68.1632 66.7516 68.1778C68.0422 68.2428 68.6796 69.0209 70.2226 68.7096C70.4736 68.6586 71.874 67.6552 72.448 68.7047C72.5284 68.8555 72.1266 69.304 72.6399 69.5243C73.4061 69.8537 74.8234 70.2589 75.7171 70.2716C76.3775 70.2806 75.8279 69.2906 76.572 69.7206C76.6026 69.7384 76.6239 69.7576 76.6377 69.7779C76.6913 69.8582 76.6304 69.9573 76.5758 70.066C76.5328 70.1512 76.4938 70.2424 76.5181 70.3351C76.539 70.4163 76.6084 70.4988 76.766 70.579C77.3856 70.8982 79.0734 71.2172 79.7181 71.3213C80.3606 71.4264 80.1316 70.723 80.1916 70.6901C80.5512 70.5055 81.8312 70.4233 81.9378 70.4421C87.3882 71.3386 92.3477 73.0769 97.7962 73.2648C98.2223 73.28 98.0082 72.5721 98.074 72.5674C99.5516 72.4256 98.2301 74.1208 99.1903 74.8243C99.1762 73.4303 99.7482 73.7384 100.79 73.6807C101.291 73.6514 101.07 73.0925 101.12 73.0419C101.921 72.2956 102.339 73.3884 102.453 73.6144C102.871 74.446 103.475 73.5574 103.764 74.1128C104.052 74.6641 103.224 75.3776 104.213 75.4492C104.53 74.9773 103.906 73.6253 104.669 73.4768C107.544 72.918 112.745 74.3083 115.016 74.579C117.282 74.8497 118.021 74.8139 119.335 75.095C121.704 75.6065 120.901 74.5783 122.43 74.2631C123.965 73.9522 123.032 76.2485 123.202 76.7738C123.367 77.2986 123.643 76.7974 123.879 77.0992C124.114 77.401 123.521 77.695 124.122 77.8545C124.718 78.0122 126.472 77.2725 126.744 76.7665C127.317 75.6922 126.68 74.4352 128.268 75.0196C128.359 75.0542 127.988 75.6405 128.341 75.7415C129.304 76.0108 130.283 76.2356 131.263 76.4508C133.09 76.8563 134.964 77.1002 136.805 77.4309C137.191 77.5007 136.825 78.1835 137.051 78.2317C139.424 78.7128 138.596 77.5272 139.849 76.2209C139.586 77.9472 140.322 79.0117 142.151 78.9402C143.246 78.8917 143.015 78.1469 143.677 77.5722C143.873 77.3994 144.674 77.8581 144.784 77.4926C145.14 76.2975 144.325 75.0763 146.169 75.4191C146.251 75.4355 146.061 76.0921 146.34 76.1026C148.146 76.1625 148.216 74.9338 150.083 74.5225C151.544 74.201 154.306 74.4699 156.025 74.2353C156.373 76.1468 157.911 75.3721 158.265 73.9188C159.372 73.7283 160.535 73.3739 161.633 73.2894C162.012 73.2592 161.91 73.864 161.97 73.9114C162.912 74.6561 163.065 73.2704 163.285 73.1602C165.7 72.0112 168.046 72.3576 170.174 70.6941C170.248 70.6345 169.988 69.3052 170.923 70.0439C170.985 70.0953 170.373 70.9302 171.519 70.6199C172.662 70.3114 175.022 70.302 176.388 69.1773C176.717 68.9076 177.321 67.5453 178.361 68.0893C178.5 68.1638 178.516 68.5675 178.733 68.72C179.435 69.2017 179.252 67.8228 180.192 68.7196C181.129 69.6171 182.6 70.0174 183.903 68.7027C183.941 68.6644 183.958 67.5112 184.457 67.3501C185.248 67.0963 186.443 66.905 187.276 66.5989C187.669 66.4541 187.191 65.9133 187.255 65.8773C187.409 65.7977 187.56 65.7229 187.709 65.6526C189.978 64.5632 191.924 64.2753 194.512 63.0914C195.03 62.857 195.88 61.2737 197.155 61.2811C198.564 61.2679 199.441 64.7127 201.301 62.3817C202.073 61.4052 200.504 57.3348 203.378 57.6827C205.872 54.7532 209.112 52.9038 210.982 49.4378C211.065 49.2851 210.509 48.1229 210.768 47.8265C211.163 47.3756 211.786 47.4641 212.083 47.1445C212.728 46.4594 213.201 45.6952 213.66 44.9318C214.066 44.2515 214.335 43.537 214.586 42.803C214.766 42.2118 215.284 42.5514 215.425 41.7476C215.526 40.912 214.787 40.4531 214.947 39.3893C215.061 38.6007 216.228 37.2392 215.788 36.0046C215.153 36.3115 214.743 36.3126 214.378 36.1473C213.965 35.9585 213.593 35.5511 212.991 35.1564C212.772 35.0163 212.546 35.5542 212.424 35.5079C211.933 35.3456 211.952 34.7458 211.432 34.6562C211.307 34.6352 210.956 35.0061 210.838 35.0147C209.852 35.1143 209.644 33.529 209.562 33.2332C209.329 32.1437 208.629 32.4909 208.253 31.9137C207.859 31.3331 208.874 31.4972 208.316 30.9592C207.84 30.5065 207.244 30.0972 206.609 29.7345C205.682 29.2039 204.671 28.7776 203.815 28.394C203.235 28.1383 203.364 28.9356 203.275 28.9135C202.017 28.5647 201.083 27.3945 199.895 28.3691C200.419 24.782 199.042 28.3836 197.603 27.0129C197.488 26.9027 197.97 25.3036 198.576 25.2953C199.188 25.2897 199.767 26.0962 200.629 26.0446C200.836 26.0344 202.403 25.0025 202.576 24.9725C203.906 24.7294 203.1 27.0835 203.099 27.2307C203.154 28.8476 205.004 27.8228 205.382 27.8695C206.091 27.9435 206.705 28.16 207.274 28.4108C208.054 28.7549 208.749 29.1589 209.56 29.3834C210.47 29.6438 211.427 28.3297 212.06 28.8112C214.208 30.5688 213.241 32.606 216.452 33.5286C217.007 33.7472 217.832 32.8058 218.231 33.8765C218.318 34.1378 218.366 34.5311 218.32 35.0893C218.338 35.2948 217.813 37.2357 218.803 37.9621C218.932 38.0581 219.434 37.9293 219.517 38.0903C220.049 39.1951 219.753 40.0611 219.914 41.4231C220.077 42.7899 219.975 44.6923 219.062 46.1319C218.648 46.8123 217.642 47.2677 217.022 47.4597C216.873 47.4751 216.748 47.4895 216.668 47.5076C215.647 47.7319 216.019 49.0797 215.058 48.9731C214.102 48.8515 213.702 47.3236 212.488 48.0052C213.515 48.8747 214.53 49.8165 215.541 50.7185C213.692 52.9751 211.469 54.8902 209.443 57.0532C209.192 57.3215 209.973 57.5583 209.714 57.8613C208.607 59.1445 207.184 59.7874 206.002 61.1002C205.088 62.1176 204.402 63.6725 203.343 64.7152C201.71 64.03 200.294 65.6877 198.878 66.4045C198.387 66.6553 198.199 66.2868 197.802 66.3725C196.301 66.6919 197.57 67.5143 197.327 67.9052C196.227 69.5712 194.637 66.9401 192.9 67.8607C192.82 67.9071 192.292 69.944 192.148 70.111C191.318 71.181 191.749 69.6619 191.028 69.8256C190.406 69.963 189.86 70.0167 189.313 70.1374C188.776 70.2453 188.216 70.4577 187.616 70.9428C187.282 71.2141 186.702 72.5098 185.683 72.0348C185.548 71.9729 185.42 71.4427 185.329 71.4415C183.719 71.4559 184.236 73.0801 183.612 73.9144C182.972 74.7544 181.301 74.0931 180.924 73.865C179.945 73.2767 181.329 73.327 181.335 73.2332C181.432 72.1136 180.548 72.6109 179.811 72.7741C179.163 71.2305 178.197 71.6687 179.042 72.9512C179.137 73.0906 179.644 72.7513 179.811 72.7741C179.722 74.5399 178.677 75.1215 176.961 74.08C176.163 73.5884 176.444 72.6167 174.801 73.4788C174.059 73.8658 174.718 74.8615 174.111 75.3864C172.726 76.584 170.301 76.2067 168.683 76.8505C168.09 77.0859 168.859 77.5193 168.459 77.7008C167.401 78.1824 166.291 77.9998 165.234 78.5318C165.138 78.5809 165.557 79.1518 165.208 79.253C162.566 80.0281 160.13 80.177 157.3 80.7434C155.937 81.0211 153.531 81.826 152.072 81.9707C149.544 82.2448 146.349 81.636 144.213 82.0116C142.813 82.2544 143.16 82.8883 142.568 83.3705C141.411 84.3083 139.244 82.7832 138.975 82.5366C138.968 82.5307 140.192 82.3612 139.534 82.0305C139.15 81.3293 138.99 82.5334 138.975 82.5366C138.788 82.3913 136.337 82.2059 135.841 82.2997C135.572 82.3574 135.694 82.9878 135.553 83.0058C133.865 83.2123 132.149 83.2538 130.436 83.1137C128.956 83.0016 127.472 82.8045 125.977 82.5097C125.925 82.4918 126.074 81.8043 125.951 81.771C124.215 81.2878 122.998 82.0397 121.493 82.4222C119.988 82.8056 118.839 82.5467 118.053 81.2835C116.93 81.3492 115.362 80.7025 114.46 80.3145C113.558 79.9265 113.329 81.274 113.246 81.2949C110.638 81.9695 109.218 81.0884 106.566 80.7641C105.309 80.6086 102.775 80.6016 101.383 80.6271C100.285 80.6508 99.6525 80.2727 98.6314 80.3803C98.4928 80.3944 98.5726 81.0105 98.5288 81.0297C97.3328 81.6423 98.0173 80.2205 97.8111 79.9348C97.0671 78.8945 96.6029 78.3346 95.1248 78.6305C94.7853 78.6983 93.5809 80.7099 92.9562 80.7625C92.1462 80.8271 92.5319 80.1034 91.6845 80.1877C91.6119 80.194 91.5702 80.6643 91.0606 80.5804C88.6936 80.1965 86.1401 79.5621 83.6636 79.2098C83.3251 79.1597 83.6394 79.9684 83.1465 79.9074C80.836 79.6209 78.3166 79.1296 76.1573 78.3257C75.627 78.1255 76.0773 77.684 75.9902 77.5072C75.7709 77.0682 75.423 76.9963 75.0736 77.0625C74.5996 77.1643 74.1239 77.5578 74.0267 77.5531C70.0924 77.4003 67.3738 75.6344 63.2949 75.4967C63.0719 75.4913 61.1513 76.6366 60.6229 75.2673C60.5866 75.1759 60.0716 73.7791 59.2658 74.5296C59.2152 74.5765 59.5623 75.3098 58.7681 75.1013C57.9714 74.8924 56.6034 75.1004 55.6117 74.1861C55.2974 73.8978 54.6945 72.4886 53.4589 73.3057C53.3784 73.3641 51.3343 75.3444 51.0379 73.6681C50.9903 73.3921 51.3933 71.7515 49.9728 72.3683C49.7007 72.4883 50.0703 72.9402 49.3908 73.0525C48.3544 73.2276 47.1298 72.5343 45.7849 73.0346C45.5482 73.1237 44.4166 74.0667 43.8678 73.0664C43.7823 72.9098 44.1095 72.4019 43.7425 72.262C41.992 71.5927 39.9991 71.544 38.2438 70.7274C37.6152 70.4369 38.1633 69.6319 37.54 69.2296C36.9176 68.8283 35.6167 68.256 34.7961 68.4664C33.9765 68.6776 34.3808 70.2916 33.2732 70.11C28.4079 69.2878 23.9131 66.8876 19.3185 64.473C18.6307 64.1059 18.9729 64.8671 17.9373 64.3402C14.1484 62.5985 7.35335 57.986 5.78215 53.9252C4.5379 50.8565 7.47295 53.6072 6.34137 51.5002C5.83135 50.5142 3.75649 50.3622 3.55493 50.1241C2.88206 49.3726 2.43626 48.5988 2.09105 47.8196C1.2387 45.9058 0.929608 43.9136 0.752918 41.5173C0.712374 40.7395 0.0141258 41.5026 0.00154018 40.8109C-0.0294089 38.3925 1.07082 36.0171 2.07398 34.2033C2.52816 33.3892 2.00176 33.2479 2.52896 32.56C3.3653 31.5011 4.24895 30.7233 5.20798 30.1201C5.5772 29.9302 5.96702 29.7607 6.3884 29.61C6.49835 29.5713 6.39054 30.5417 7.07691 29.9582C8.19173 29.0103 9.87028 28.214 10.8635 26.7796C11.157 26.3536 10.4329 25.3987 11.7913 25.3866C12.0773 25.3847 12.7175 26.6947 12.9582 24.9565C12.9891 24.6692 13.7149 22.0543 15.1961 22.3407C15.5849 22.4141 16.8186 22.9861 17.2069 22.5019C17.2579 22.432 16.6281 22.0829 17.0059 21.7529C18.3461 20.5998 19.9396 19.673 21.3889 18.5809C21.777 18.2878 20.8174 18.083 21.4108 17.6634C23.0437 16.507 25.3182 15.4667 27.145 14.7867C27.8188 14.5368 27.6221 15.2499 27.6956 15.2799C28.8687 15.7828 28.7318 14.3925 28.9505 14.2024C30.3104 13.0447 31.7652 13.0685 33.1515 12.2999C33.5371 12.0894 33.0077 11.6334 33.0663 11.548C33.6937 10.6926 33.5042 11.9915 34.0787 11.8868C35.6889 11.5996 37.3198 10.9156 38.8076 10.2957C39.3549 10.0672 38.4823 9.60811 38.9787 9.41096C41.9124 8.23336 45.0831 7.33467 48.1424 6.94022C48.7192 6.86744 48.5103 7.50091 48.6585 7.59398C49.6715 8.25069 50.5407 6.78084 50.7852 6.60335C51.8902 5.79303 52.484 6.16583 53.5503 5.83745C55.5671 5.21643 57.8124 4.7233 60.0981 4.35286C63.6367 3.77707 67.2887 3.44812 70.3342 3.20709C76.8267 2.69762 81.8488 2.80726 87.9746 2.28839C88.3639 2.25687 87.926 1.53785 88.2616 1.50124C92.6033 1.06364 96.9012 1.18248 101.245 0.867387C101.603 0.842957 101.07 0.14944 101.645 0.0867453C102.825 -0.0467591 104.313 -0.033505 105.509 0.177841C106.092 0.279624 105.32 0.893664 105.905 0.983923C107.267 1.19588 108.717 1.23786 110.115 1.1244C110.71 1.07476 109.813 0.353261 110.586 0.345217C115.847 0.278516 121.026 0.257655 126.292 1.39205C126.654 1.47011 126.914 2.94697 127.695 2.69773C127.77 2.29363 127.786 1.81532 127.83 1.38188C135.476 1.46599 142.992 2.48189 150.6 3.26905C150.92 3.30217 150.438 2.47681 151.06 2.53723C154.669 2.88888 158.187 3.04591 161.781 4.25177C162.136 4.37049 161.788 5.70406 162.881 5.62898C163.073 5.61366 164.715 5.6346 165.169 5.39448C165.232 5.35738 165.018 4.68686 165.541 4.7352C168.577 5.02709 171.744 5.61693 174.69 6.45919C175.166 6.59652 174.546 7.18906 174.885 7.29299C177.288 8.02414 180.039 7.95001 182.262 8.96217C183.761 9.64539 182.976 10.7005 183.599 11.985C183.688 12.1661 184.64 12.3644 184.568 13.0351C184.391 14.7215 183.601 16.4598 183.467 18.2672C183.438 18.656 184.765 18.4747 183.854 19.2612C183.792 19.3132 182.828 19.4542 182.547 19.7274C182.352 19.916 182.512 20.6394 182.145 20.8597C181.778 21.0799 181.529 20.4531 180.942 20.6861C180.357 20.924 180.447 21.7284 179.389 21.6397ZM110.386 78.5776C109.573 77.8631 109.271 80.2401 110.245 79.7374C110.292 79.7102 110.429 78.6128 110.386 78.5776ZM210.097 53.6298C208.539 53.7801 209.126 55.4101 210.289 55.3627C211.46 55.2982 210.573 53.5778 210.097 53.6298ZM216.717 42.9591C215.497 44.1877 218.457 45.9364 218.5 43.5601C218.497 43.4171 216.787 42.8724 216.717 42.9591ZM179.721 11.6474C179.728 11.6806 180.413 11.8275 180.434 11.7994C180.929 11.1122 179.557 10.8185 179.721 11.6474ZM210.825 31.9903C210.899 32.597 212.182 32.969 212.13 32.1875C212.071 31.5312 210.714 31.2043 210.825 31.9903ZM66.1108 69.7186C66.1039 69.681 65.619 69.5601 65.5929 69.7602C65.5102 70.4049 66.2248 70.349 66.1108 69.7186ZM192.858 23.5754C195.454 24.8536 195.988 28.1296 193.191 26.5747C192.686 26.2928 194.685 26.2498 194.112 25.7252C193.066 24.7686 191.548 26.0237 190.677 24.6064C190.525 24.3505 192.715 23.4988 192.864 23.5739C192.862 23.5744 192.86 23.5749 192.858 23.5754ZM110.1 75.675C110.086 75.6423 109.4 75.5617 109.381 75.5917C108.952 76.3218 110.335 76.4847 110.1 75.675ZM37.8654 62.7044C37.8499 62.6333 36.3171 62.1692 36.2554 62.2143C35.1218 63.2024 38.2366 64.1509 37.8654 62.7044ZM156.062 74.2806C156.639 73.3835 157.471 73.1121 158.261 73.9186C157.526 74.0305 156.8 74.178 156.062 74.2806Z" fill="#FF3F3F"/>
</svg>
